<svg xmlns="http://www.w3.org/2000/svg" xmlns:xlink="http://www.w3.org/1999/xlink" id="Layer_1" x="0" y="0" version="1.1" viewBox="0 0 493.7 295.1" xml:space="preserve" style="enable-background:new 0 0 493.7 295.1"><style type="text/css">.st0{fill:#1d1d1b}.st1{fill:#eddfd6}.st2{stroke-width:.42}.st2,.st3,.st4{fill:#eddfd6;stroke:#1d1d1b;stroke-miterlimit:10}.st3{stroke-width:.5}.st4{stroke-width:.53}.st6{opacity:.19;fill:#1d1d1b;enable-background:new}.st7{fill:none;stroke:#1d1d1b;stroke-width:.42;stroke-miterlimit:10}.st8{fill:#010101}</style><g id="b"><g id="c"><g><path d="M0.4,0.2h492.8c0.1,0,0.2,0.1,0.2,0.2v294.2c0,0.1-0.1,0.2-0.2,0.2H0.4c-0.1,0-0.2-0.1-0.2-0.2V0.4 C0.2,0.3,0.3,0.2,0.4,0.2z" class="st0"/><path d="M493.3,0.4v294.2H0.4V0.4H493.3 M493.3,0H0.4C0.2,0,0,0.2,0,0.4v294.2c0,0.2,0.2,0.4,0.4,0.4h492.8 c0.2,0,0.4-0.2,0.4-0.4V0.4C493.7,0.2,493.5,0,493.3,0L493.3,0z" class="st1"/></g><ellipse cx="351.8" cy="150.9" class="st2" rx="33.8" ry="52.2"/><ellipse cx="410.5" cy="153.2" class="st3" rx="16.9" ry="52.2"/><ellipse cx="352.2" cy="150.9" class="st3" rx="30.6" ry="49.2"/><ellipse cx="410.5" cy="153.2" class="st3" rx="15.1" ry="49.2"/><ellipse cx="352.4" cy="152.3" class="st2" rx="20" ry="41.8"/><ellipse cx="410.1" cy="152.3" class="st3" rx="8" ry="41.8"/><ellipse cx="352.4" cy="121.9" class="st0" rx="2.6" ry="3.8"/><ellipse cx="352.4" cy="182.7" class="st0" rx="2.6" ry="3.8"/><ellipse cx="410.5" cy="122.8" class="st0" rx="1.6" ry="3.8"/><ellipse cx="410.5" cy="183.6" class="st0" rx="1.6" ry="3.8"/><path d="M333.2,162.4l-1.1,2.1c-0.8,1.5-2.1,2.7-3.6,3.5l-1.5,0.8l1.3,0.6c1.6,0.8,3,2.1,3.8,3.7l0.9,1.7l0.5-1 c1-2,2.7-3.6,4.8-4.6l0.6-0.3l-1.5-0.9c-1.5-0.9-2.6-2.2-3.3-3.8L333.2,162.4L333.2,162.4z" class="st0"/><path d="M341.3,170.8l-0.3,0.5c-0.2,0.4-0.5,0.7-0.9,0.9l-0.4,0.2l0.3,0.1c0.4,0.2,0.8,0.5,1,0.9l0.2,0.4l0.1-0.3 c0.3-0.5,0.7-0.9,1.2-1.2l0.1-0.1l-0.4-0.2c-0.4-0.2-0.7-0.6-0.9-1L341.3,170.8L341.3,170.8z" class="st0"/><g><circle cx="259.1" cy="154.2" r="52.2" class="st4"/><circle cx="259.1" cy="154.2" r="49.2" class="st3"/><circle cx="259.1" cy="154.2" r="41.8" class="st2"/><path d="M270.8,138.2l1,7.6l-1.4,0.1c-0.8-6.1-2-7.1-5.6-7.1h-7.4c-1.6,0-2.4,0.8-2.4,2.1v12.2h6.4 c3,0,3.9-0.7,3.9-5.2h1.2v12h-1.2c0-4.5-0.9-5.2-3.9-5.2H255v13.1c0,2.1,0.4,2.5,2.4,2.5h7.3c3.9,0,5.4-1.3,7.4-8.1l1.4,0.4 l-2.5,8.4l-0.4,1.3h-26.9v-1.1c4.8,0,5.5-0.8,5.5-3.5v-26.3c0-2.7-0.7-3.5-5.5-3.5v-1.1h27L270.8,138.2L270.8,138.2z" class="st0"/><circle cx="258.4" cy="125.2" r="3.8" class="st0"/><circle cx="258.4" cy="186" r="3.8" class="st0"/><path d="M292.5,122.6l-1.2,2.2c-0.9,1.6-2.2,2.8-3.8,3.6l-1.6,0.8l1.3,0.6c1.7,0.8,3.1,2.1,4,3.8l0.9,1.8l0.5-1 c1.1-2.1,2.8-3.7,4.9-4.7l0.6-0.3l-1.6-0.9c-1.5-0.9-2.7-2.3-3.4-3.9L292.5,122.6L292.5,122.6z" class="st0"/><g><g><defs><circle id="SVGID_1_" cx="259.1" cy="154.2" r="52.2"/></defs><clipPath id="SVGID_00000155853206232280867060000006840456070628174002_"><use xlink:href="#SVGID_1_" style="overflow:visible"/></clipPath><g style="clip-path:url(#SVGID_00000155853206232280867060000006840456070628174002_)"><path d="M257,111.5c0,0-87.8,4.8-30.8,16.8s77.3,11.7,62.8,33.7c-14.5,22-57.6,33.7-37.1,38.3 c20.6,4.5,36.2,9.4,36,10s-50.2,1.2-50.2,1.2l-54.1-18.1l-16-45c0,0,4.7-36.5,5.5-36.1s57.4-14.6,57.4-14.6L257,111.5 L257,111.5z" class="st6"/></g></g><circle cx="259.1" cy="154.2" r="52.2" class="st7"/></g></g><path d="M359.5,135.9l0.6,7.6l-0.9,0.1c-0.5-6.1-1.2-7.1-3.3-7.1h-4.4c-0.9,0-1.4,0.8-1.4,2.1v12.2h3.8 c1.8,0,2.3-0.7,2.3-5.2h0.7v12h-0.7c0-4.5-0.5-5.2-2.3-5.2h-3.8v13.1c0,2.1,0.2,2.5,1.4,2.5h4.3c2.3,0,3.2-1.3,4.4-8.1l0.9,0.4 l-1.5,8.4l-0.2,1.3h-15.9v-1.1c2.8,0,3.2-0.8,3.2-3.5v-26.3c0-2.7-0.4-3.5-3.2-3.5v-1.1h16L359.5,135.9L359.5,135.9z" class="st8"/><path d="M413.2,136.8l0.2,7.6l-0.3,0.1c-0.2-6.1-0.4-7.1-1.2-7.1h-1.6c-0.4,0-0.5,0.8-0.5,2.1v12.2h1.4 c0.7,0,0.9-0.7,0.9-5.2h0.3v12H412c0-4.5-0.2-5.2-0.9-5.2h-1.4v13.1c0,2.1,0.1,2.5,0.5,2.5h1.6c0.9,0,1.2-1.3,1.7-8.1l0.3,0.4 l-0.6,8.4l-0.1,1.3h-6v-1.1c1.1,0,1.2-0.8,1.2-3.5V140c0-2.7-0.1-3.5-1.2-3.5v-1.1h6L413.2,136.8L413.2,136.8z" class="st8"/><g><defs><ellipse id="SVGID_00000176764731206355255680000012367208658251391919_" cx="351.8" cy="150.9" rx="33.8" ry="52.2"/></defs><clipPath id="SVGID_00000134233368117214435440000007815644654048339378_"><use xlink:href="#SVGID_00000176764731206355255680000012367208658251391919_" style="overflow:visible"/></clipPath><g style="clip-path:url(#SVGID_00000134233368117214435440000007815644654048339378_)"><path d="M381.1,63.6c0,0-71.6,3.9-25.1,13.7s63,9.6,51.2,27.5s-47,27.5-30.2,31.2c16.8,3.7,29.5,7.6,29.4,8.1 s-41,1-41,1l-44.1-14.8l-13-36.7c0,0,3.8-29.8,4.5-29.4s46.8-11.9,46.8-11.9L381.1,63.6L381.1,63.6z" class="st6"/></g></g><g><defs><ellipse id="SVGID_00000015313294024976954340000014264422414976164017_" cx="410.5" cy="153.2" rx="16.9" ry="52.2"/></defs><clipPath id="SVGID_00000025408756424575653210000002453750050433895046_"><use xlink:href="#SVGID_00000015313294024976954340000014264422414976164017_" style="overflow:visible"/></clipPath><g style="clip-path:url(#SVGID_00000025408756424575653210000002453750050433895046_)"><path d="M463.3,159.6c0,0-71.6,3.9-25.1,13.7s63,9.6,51.2,27.5s-47,27.5-30.2,31.2c16.8,3.7,29.5,7.6,29.4,8.1 s-41,1-41,1l-44.1-14.8l-13-36.7c0,0,3.8-29.8,4.5-29.4s46.8-11.9,46.8-11.9L463.3,159.6L463.3,159.6z" class="st6"/></g></g><g><defs><ellipse id="SVGID_00000182495069553281980590000014871830043290072227_" cx="443.8" cy="153.2" rx="8.5" ry="52.2"/></defs><clipPath id="SVGID_00000013902575125141278090000015020472761723168387_"><use xlink:href="#SVGID_00000182495069553281980590000014871830043290072227_" style="overflow:visible"/></clipPath><g style="clip-path:url(#SVGID_00000013902575125141278090000015020472761723168387_)"><path d="M515.3,123.5c0,0-3.9-71.6-13.7-25.1s-9.6,63-27.5,51.2s-27.5-47-31.2-30.2c-3.7,16.8-7.6,29.5-8.1,29.4 s-1-40.9-1-40.9l14.8-44.1l36.7-13c0,0,29.8,3.8,29.4,4.5s11.9,46.8,11.9,46.8L515.3,123.5L515.3,123.5z" class="st6"/></g></g><g><ellipse cx="169.4" cy="153.2" class="st2" rx="33.8" ry="52.2"/><ellipse cx="112.6" cy="153.2" class="st2" rx="16.9" ry="52.2"/><ellipse cx="81.1" cy="153.2" class="st2" rx="8.5" ry="52.2"/><ellipse cx="169.3" cy="153.2" class="st2" rx="31.1" ry="49.2"/><ellipse cx="112.5" cy="153.2" class="st2" rx="15.3" ry="49.2"/><ellipse cx="81.1" cy="153.2" class="st2" rx="7.2" ry="49.2"/><ellipse cx="81.3" cy="155.3" class="st2" rx="4.4" ry="48"/><ellipse cx="169.4" cy="152.3" class="st2" rx="20" ry="41.8"/><ellipse cx="112.5" cy="152.3" class="st2" rx="8" ry="41.8"/><ellipse cx="168.2" cy="121.9" class="st0" rx="2.6" ry="3.8"/><ellipse cx="168.2" cy="182.7" class="st0" rx="2.6" ry="3.8"/><ellipse cx="112.5" cy="121.9" class="st0" rx="1.7" ry="3.8"/><ellipse cx="112.5" cy="182.7" class="st0" rx="1.7" ry="3.8"/><ellipse cx="81.1" cy="121.9" class="st0" rx=".9" ry="3.8"/><ellipse cx="81.1" cy="182.7" class="st0" rx=".9" ry="3.8"/><path d="M176.6,134.6l0.6,7.6l-0.9,0.1c-0.5-6.1-1.2-7.1-3.3-7.1h-4.4c-0.9,0-1.4,0.8-1.4,2.1v12.2h3.8 c1.8,0,2.3-0.7,2.3-5.2h0.7v12h-0.7c0-4.5-0.5-5.2-2.3-5.2h-3.8v13.1c0,2.1,0.2,2.5,1.4,2.5h4.3c2.3,0,3.2-1.3,4.4-8.1l0.9,0.4 l-1.5,8.4l-0.2,1.3h-15.9v-1.1c2.8,0,3.2-0.8,3.2-3.5v-26.3c0-2.7-0.4-3.5-3.2-3.5v-1.1h15.9L176.6,134.6L176.6,134.6z" class="st8"/><path d="M115.3,136.8l0.2,7.6l-0.3,0.1c-0.2-6.1-0.4-7.1-1.2-7.1h-1.6c-0.4,0-0.5,0.8-0.5,2.1v12.2h1.4 c0.7,0,0.9-0.7,0.9-5.2h0.3v12h-0.3c0-4.5-0.2-5.2-0.9-5.2h-1.4v13.1c0,2.1,0.1,2.5,0.5,2.5h1.6c0.9,0,1.2-1.3,1.7-8.1l0.3,0.4 l-0.6,8.4l-0.1,1.3h-6v-1.1c1.1,0,1.2-0.8,1.2-3.5V140c0-2.7-0.2-3.5-1.2-3.5v-1.1h6L115.3,136.8L115.3,136.8z" class="st8"/><path d="M82.1,136.8l0.1,7.6l-0.1,0.1c-0.1-6.1-0.2-7.1-0.5-7.1H81c-0.1,0-0.2,0.8-0.2,2.1v12.2h0.5 c0.3,0,0.3-0.7,0.3-5.2h0.1v12h-0.1c0-4.5-0.1-5.2-0.3-5.2h-0.5v13.1c0,2.1,0,2.5,0.2,2.5h0.6c0.3,0,0.4-1.3,0.6-8.1l0.1,0.4 l-0.2,8.4l0,1.3h-2.3v-1.1c0.4,0,0.5-0.8,0.5-3.5V140c0-2.7-0.1-3.5-0.5-3.5v-1.1h2.3V136.8L82.1,136.8z" class="st8"/><g><defs><ellipse id="SVGID_00000173878620455439541470000013693702826914502056_" cx="169.3" cy="153.2" rx="33.8" ry="52.2"/></defs><clipPath id="SVGID_00000024693937081442745840000001987378871360438663_"><use xlink:href="#SVGID_00000173878620455439541470000013693702826914502056_" style="overflow:visible"/></clipPath><g style="clip-path:url(#SVGID_00000024693937081442745840000001987378871360438663_)"><path d="M182.3,137.9c0,0-7.9-71.2-15.1-24.3s-6,63.4-24.6,52.7s-30.1-45.4-32.8-28.4s-6,29.9-6.5,29.8 s-3.3-40.8-3.3-40.8l12.3-44.8l35.9-15.1c0,0,29.9,2.2,29.6,2.8s14.5,46.1,14.5,46.1L182.3,137.9L182.3,137.9z" class="st6"/></g></g><g><defs><ellipse id="SVGID_00000096034198877082890690000002948003613284195714_" cx="112.5" cy="153.2" rx="16.9" ry="52.2"/></defs><clipPath id="SVGID_00000157289617347992205800000017474995043544618666_"><use xlink:href="#SVGID_00000096034198877082890690000002948003613284195714_" style="overflow:visible"/></clipPath><g style="clip-path:url(#SVGID_00000157289617347992205800000017474995043544618666_)"><path d="M53,191.9c0,0,15.9,69.9,17.8,22.4s-1.2-63.7,18.4-55.1s35,41.7,35.8,24.5s2.5-30.4,3.1-30.3 c0.5,0.1,7.9,40.2,7.9,40.2l-7.1,45.9l-33.9,19c0,0-30,1.3-29.7,0.5s-19.7-44.1-19.7-44.1L53,191.9L53,191.9z" class="st6"/></g></g><g><path d="M67.5,115.6c0,0-71.6,3.9-25.1,13.7s63,9.6,51.2,27.5s-47,27.5-30.2,31.2c16.8,3.7,29.5,7.6,29.4,8.1 s-41,1-41,1L7.8,182.4l-13-36.7c0,0,3.8-29.8,4.5-29.4S46,104.4,46,104.4S67.5,115.6,67.5,115.6z" class="st6"/></g><ellipse cx="443.5" cy="153.2" class="st2" rx="7.2" ry="49.2"/><ellipse cx="443.7" cy="155.3" class="st2" rx="4.4" ry="48"/><ellipse cx="443.5" cy="121.9" class="st0" rx="1" ry="3.8"/><ellipse cx="443.5" cy="182.7" class="st0" rx="1" ry="3.8"/><path d="M444.5,136.8l0.1,7.6l-0.1,0.1c-0.1-6.1-0.2-7.1-0.5-7.1h-0.6c-0.1,0-0.2,0.8-0.2,2.1v12.2h0.5 c0.3,0,0.3-0.7,0.3-5.2h0.1v12h-0.1c0-4.5-0.1-5.2-0.3-5.2h-0.5v13.1c0,2.1,0,2.5,0.2,2.5h0.6c0.3,0,0.5-1.3,0.6-8.1l0.1,0.4 l-0.2,8.4l0,1.3h-2.3v-1.1c0.4,0,0.5-0.8,0.5-3.5V140c0-2.7-0.1-3.5-0.5-3.5v-1.1h2.3V136.8L444.5,136.8z" class="st8"/><g><defs><ellipse id="SVGID_00000120523590760482344850000000468158634467879816_" cx="443.5" cy="153" rx="8.5" ry="52.2"/></defs><clipPath id="SVGID_00000057143140348571509520000014187414682631305865_"><use xlink:href="#SVGID_00000120523590760482344850000000468158634467879816_" style="overflow:visible"/></clipPath><g style="clip-path:url(#SVGID_00000057143140348571509520000014187414682631305865_)"><path d="M429.9,115.6c0,0-71.6,3.9-25.1,13.7s63,9.6,51.2,27.5s-47,27.5-30.2,31.2c16.8,3.7,29.5,7.6,29.4,8.1 s-41,1-41,1l-44.1-14.8l-13-36.7c0,0,3.8-29.8,4.5-29.4s46.8-11.9,46.8-11.9L429.9,115.6L429.9,115.6z" class="st6"/></g></g></g></g></g></svg>