<svg xmlns="http://www.w3.org/2000/svg" viewBox="0 0 134.46 134.46"><defs><style>.d,.e{fill:#eddfd6}.f{stroke-width:.53px}.e,.f,.g{stroke-miterlimit:10}.f,.g{stroke:#eddfd6}.f,.g,.h{fill:#1d1d1b}.e{stroke:#1d1d1b}.e,.g{stroke-width:.42px}.h{font-family:Helvetica,Helvetica;font-size:11.07px}</style></defs><g id="b"><g id="c"><g><rect width="134.04" height="134.04" x=".21" y=".21" class="g"/><rect width="21.13" height="21.13" x=".43" y=".42" class="d"/><text class="h" transform="translate(3.95 15.21)"><tspan x="0" y="0">15</tspan></text><g><g><g><circle cx="37.76" cy="62.17" r="12.79" class="f"/><circle cx="37.76" cy="62.17" r="10.25" class="g"/></g><path d="M44.25,62.17c-1.79,0-3.41,.73-4.59,1.9-1.17,1.17-1.9,2.8-1.9,4.59,0-1.79-.73-3.41-1.9-4.59-1.17-1.17-2.79-1.9-4.59-1.9,1.79,0,3.41-.73,4.59-1.9,1.17-1.17,1.9-2.8,1.9-4.59,0,3.58,2.91,6.49,6.49,6.49Z" class="e"/></g><g><g><circle cx="99.09" cy="62.17" r="12.79" class="f"/><circle cx="99.09" cy="62.17" r="10.25" class="g"/></g><path d="M105.57,62.17c-1.79,0-3.41,.73-4.59,1.9-1.17,1.17-1.9,2.8-1.9,4.59,0-1.79-.73-3.41-1.9-4.59-1.17-1.17-2.79-1.9-4.59-1.9,1.79,0,3.41-.73,4.59-1.9,1.17-1.17,1.9-2.8,1.9-4.59,0,3.58,2.91,6.49,6.49,6.49Z" class="e"/></g><g><g><circle cx="68.42" cy="47.17" r="12.79" class="f"/><circle cx="68.42" cy="47.17" r="10.25" class="g"/></g><path d="M74.91,47.17c-1.79,0-3.41,.73-4.59,1.9-1.17,1.17-1.9,2.8-1.9,4.59,0-1.79-.73-3.41-1.9-4.59-1.17-1.17-2.79-1.9-4.59-1.9,1.79,0,3.41-.73,4.59-1.9,1.17-1.17,1.9-2.8,1.9-4.59,0,3.58,2.91,6.49,6.49,6.49Z" class="e"/></g><g><g><circle cx="37.76" cy="92.48" r="12.79" class="f"/><circle cx="37.76" cy="92.48" r="10.25" class="g"/></g><path d="M44.25,92.47c-1.79,0-3.41,.73-4.59,1.9-1.17,1.17-1.9,2.8-1.9,4.59,0-1.79-.73-3.41-1.9-4.59-1.17-1.17-2.79-1.9-4.59-1.9,1.79,0,3.41-.73,4.59-1.9,1.17-1.17,1.9-2.8,1.9-4.59,0,3.58,2.91,6.49,6.49,6.49Z" class="e"/></g><g><g><circle cx="99.09" cy="92.48" r="12.79" class="f"/><circle cx="99.09" cy="92.48" r="10.25" class="g"/></g><path d="M105.57,92.47c-1.79,0-3.41,.73-4.59,1.9-1.17,1.17-1.9,2.8-1.9,4.59,0-1.79-.73-3.41-1.9-4.59-1.17-1.17-2.79-1.9-4.59-1.9,1.79,0,3.41-.73,4.59-1.9,1.17-1.17,1.9-2.8,1.9-4.59,0,3.58,2.91,6.49,6.49,6.49Z" class="e"/></g><g><g><circle cx="68.42" cy="77.48" r="12.79" class="f"/><circle cx="68.42" cy="77.48" r="10.25" class="g"/></g><path d="M74.91,77.47c-1.79,0-3.41,.73-4.59,1.9-1.17,1.17-1.9,2.8-1.9,4.59,0-1.79-.73-3.41-1.9-4.59-1.17-1.17-2.79-1.9-4.59-1.9,1.79,0,3.41-.73,4.59-1.9,1.17-1.17,1.9-2.8,1.9-4.59,0,3.58,2.91,6.49,6.49,6.49Z" class="e"/></g></g></g></g></g></svg>